# xmcd CD database file
#
# Track frame offsets:
#	150
#	41135
#	73824
#	108252
#	157628
#	193166
#	240622
#
# Disc length: 3491 seconds
#
# Revision: 0
# Processed by: cddbd v1.5.2PL0 Copyright (c) Steve Scherf et al.
# Submitted via: CDex 1.70beta3
#
DISCID=580da107
DTITLE=Tizer - Live
DYEAR=2010
DGENRE=Jazz
TTITLE0=What It Is
TTITLE1=Diversify
TTITLE2=Flow
TTITLE3=West Side Hwy
TTITLE4=A Hui Hou
TTITLE5=St Stephens Green
TTITLE6=Uptown
EXTD=YEAR: 2010
EXTT0=
EXTT1=
EXTT2=
EXTT3=
EXTT4=
EXTT5=
EXTT6=
PLAYORDER=
